<?xml version="1.0" encoding="UTF-8" standalone="no"?>
<!-- Created with Inkscape (http://www.inkscape.org/) -->

<svg
   xmlns:dc="http://purl.org/dc/elements/1.1/"
   xmlns:cc="http://creativecommons.org/ns#"
   xmlns:rdf="http://www.w3.org/1999/02/22-rdf-syntax-ns#"
   xmlns:svg="http://www.w3.org/2000/svg"
   xmlns="http://www.w3.org/2000/svg"
   xmlns:sodipodi="http://sodipodi.sourceforge.net/DTD/sodipodi-0.dtd"
   xmlns:inkscape="http://www.inkscape.org/namespaces/inkscape"
   width="7.9803834mm"
   height="7.9803634mm"
   viewBox="0 0 7.9803834 7.9803634"
   version="1.1"
   id="svg8"
   inkscape:version="0.92.0 unknown"
   sodipodi:docname="mic.svg">
  <defs
     id="defs2" />
  <sodipodi:namedview
     id="base"
     pagecolor="#ffffff"
     bordercolor="#666666"
     borderopacity="1.0"
     inkscape:pageopacity="0.0"
     inkscape:pageshadow="2"
     inkscape:zoom="22.4"
     inkscape:cx="5.5506493"
     inkscape:cy="16.523734"
     inkscape:document-units="mm"
     inkscape:current-layer="layer1"
     showgrid="false"
     fit-margin-top="0"
     fit-margin-left="0"
     fit-margin-right="0"
     fit-margin-bottom="0"
     inkscape:window-width="1920"
     inkscape:window-height="1056"
     inkscape:window-x="1366"
     inkscape:window-y="24"
     inkscape:window-maximized="1" />
  <metadata
     id="metadata5">
    <rdf:RDF>
      <cc:Work
         rdf:about="">
        <dc:format>image/svg+xml</dc:format>
        <dc:type
           rdf:resource="http://purl.org/dc/dcmitype/StillImage" />
        <dc:title></dc:title>
      </cc:Work>
    </rdf:RDF>
  </metadata>
  <g
     inkscape:label="レイヤー 1"
     inkscape:groupmode="layer"
     id="layer1"
     transform="translate(-101.08719,-121.40863)">
    <path
       inkscape:connector-curvature="0"
       style="color:#000000;font-style:normal;font-variant:normal;font-weight:normal;font-stretch:normal;font-size:medium;line-height:normal;font-family:sans-serif;font-variant-ligatures:normal;font-variant-position:normal;font-variant-caps:normal;font-variant-numeric:normal;font-variant-alternates:normal;font-feature-settings:normal;text-indent:0;text-align:start;text-decoration:none;text-decoration-line:none;text-decoration-style:solid;text-decoration-color:#000000;letter-spacing:normal;word-spacing:normal;text-transform:none;writing-mode:lr-tb;direction:ltr;text-orientation:mixed;dominant-baseline:auto;baseline-shift:baseline;text-anchor:start;white-space:normal;shape-padding:0;clip-rule:nonzero;display:inline;overflow:visible;visibility:visible;opacity:1;isolation:auto;mix-blend-mode:normal;color-interpolation:sRGB;color-interpolation-filters:linearRGB;solid-color:#000000;solid-opacity:1;vector-effect:none;fill:#000000;fill-opacity:1;fill-rule:nonzero;stroke:none;stroke-width:0.26458332;stroke-linecap:round;stroke-linejoin:miter;stroke-miterlimit:100;stroke-dasharray:none;stroke-dashoffset:0;stroke-opacity:1;marker:none;color-rendering:auto;image-rendering:optimizeSpeed;shape-rendering:auto;text-rendering:auto;enable-background:accumulate"
       d="m 105.05853,123.21573 a 0.79381128,0.79381128 0 0 0 -0.79375,0.79427 0.79381128,0.79381128 0 0 0 0,0.0139 v 0.7798 h 0.79322 0.79428 V 124.01 a 0.79381128,0.79381128 0 0 0 -0.79428,-0.79427 z m -0.40566,0.46302 a 0.06623113,0.06623113 0 0 1 0.003,0 0.06615245,0.06615245 0 0 1 0.007,0 h 0.79375 a 0.06615245,0.06615245 0 1 1 0,0.13229 h -0.79375 a 0.06630954,0.06630954 0 0 1 -0.009,-0.13229 z m 0,0.26459 a 0.06623113,0.06623113 0 0 1 0.003,0 0.06615245,0.06615245 0 0 1 0.007,0 h 0.79375 a 0.06615245,0.06615245 0 1 1 0,0.13229 h -0.79375 a 0.06630954,0.06630954 0 0 1 -0.009,-0.13229 z m 0,0.26458 a 0.06623113,0.06623113 0 0 1 0.003,0 0.06615245,0.06615245 0 0 1 0.007,0 h 0.79375 a 0.06615245,0.06615245 0 1 1 0,0.13229 h -0.79375 a 0.06630954,0.06630954 0 0 1 -0.009,-0.13229 z m 0,0.26458 a 0.06623113,0.06623113 0 0 1 0.003,0 0.06615245,0.06615245 0 0 1 0.007,0 h 0.79375 a 0.06615245,0.06615245 0 1 1 0,0.13229 h -0.79375 a 0.06630954,0.06630954 0 0 1 -0.009,-0.13229 z m -0.62373,0.46354 a 0.13245043,0.13245043 0 0 0 0.013,0.26458 h 2.07528 a 0.13230489,0.13230489 0 1 0 0,-0.26458 h -2.07534 a 0.13230489,0.13230489 0 0 0 -0.013,0 z m 0.10388,0.39687 v 0.66198 c 0,0.46547 0.34599,0.8478 0.79375,0.91261 v 0.40979 h -0.66146 a 0.13230489,0.13230489 0 1 0 0,0.26458 h 1.5875 a 0.13230489,0.13230489 0 1 0 0,-0.26458 h -0.66146 v -0.40979 c 0.44775,-0.0648 0.79375,-0.44714 0.79375,-0.91261 v -0.66198 h -0.26458 v 0.66198 c 0,0.36696 -0.29007,0.65815 -0.6563,0.66094 h -0.0103 c -0.36624,-0.003 -0.6563,-0.29398 -0.6563,-0.66094 v -0.66198 z m 0.39687,0 v 0.66146 a 0.52916667,0.52916667 0 0 0 0.52917,0.52917 0.52916667,0.52916667 0 0 0 0.52917,-0.52917 v -0.66146 z"
       id="path6083-7" />
  </g>
</svg>
