<svg xmlns="http://www.w3.org/2000/svg" width="30.162" height="30.162" viewBox="0 0 7.9803834 7.9803634"><path style="line-height:normal;font-variant-ligatures:normal;font-variant-position:normal;font-variant-caps:normal;font-variant-numeric:normal;font-variant-alternates:normal;font-feature-settings:normal;text-indent:0;text-align:start;text-decoration-line:none;text-decoration-style:solid;text-decoration-color:#000;text-transform:none;text-orientation:mixed;shape-padding:0;isolation:auto;mix-blend-mode:normal;marker:none" d="M3.971 1.807a.794.794 0 0 0-.793.794.794.794 0 0 0 0 .014v.78H4.765v-.794a.794.794 0 0 0-.794-.794zm-.405.463a.066.066 0 0 1 .003 0 .066.066 0 0 1 .007 0h.793a.066.066 0 1 1 0 .132h-.793a.066.066 0 0 1-.01-.132zm0 .265a.066.066 0 0 1 .003 0 .066.066 0 0 1 .007 0h.793a.066.066 0 1 1 0 .132h-.793a.066.066 0 0 1-.01-.132zm0 .264a.066.066 0 0 1 .003 0 .066.066 0 0 1 .007 0h.793a.066.066 0 1 1 0 .133h-.793a.066.066 0 0 1-.01-.133zm0 .265a.066.066 0 0 1 .003 0 .066.066 0 0 1 .007 0h.793a.066.066 0 1 1 0 .132h-.793a.066.066 0 0 1-.01-.132zm-.624.463a.132.132 0 0 0 .013.265H5.03a.132.132 0 1 0 0-.265H2.955a.132.132 0 0 0-.013 0zm.104.397v.662c0 .466.346.848.794.913v.41h-.662a.132.132 0 1 0 0 .264h1.588a.132.132 0 1 0 0-.264h-.662v-.41a.924.924 0 0 0 .794-.913v-.662h-.265v.662c0 .367-.29.658-.656.661h-.01a.657.657 0 0 1-.657-.66v-.663zm.397 0v.662a.53.53 0 0 0 .529.529.53.53 0 0 0 .529-.53v-.66z" color="#000" font-weight="400" font-family="sans-serif" white-space="normal" overflow="visible" image-rendering="optimizeSpeed"/></svg>